<svg xmlns="http://www.w3.org/2000/svg" viewBox="0 0 2048 2048" width="100%" height="100%">
    <path 
      d="M 1728.972 402.779 C 1728.163 403.758, 1725.715 406.795, 1723.534 409.529 C 1721.353 412.263, 1719.317 414.725, 1719.009 415 C 1718.702 415.275, 1716.553 417.975, 1714.234 421 C 1711.915 424.025, 1709.662 426.950, 1709.227 427.500 C 1708.389 428.558, 1686.460 456.453, 1669.209 478.405 C 1663.549 485.607, 1658.143 492.400, 1657.195 493.500 C 1656.248 494.600, 1649.665 502.925, 1642.568 512 C 1635.470 521.075, 1628.501 529.884, 1627.081 531.576 C 1625.662 533.268, 1623.247 536.262, 1621.716 538.230 L 1618.933 541.806 1592.716 542.294 C 1557.295 542.952, 1533.932 544.836, 1508.500 549.087 C 1505.200 549.639, 1499.800 550.533, 1496.500 551.074 C 1493.200 551.615, 1487.575 552.717, 1484 553.522 C 1466.516 557.461, 1459.038 559.249, 1454 560.696 C 1441.746 564.214, 1425.380 569.197, 1423.500 569.982 C 1422.400 570.442, 1416.775 572.485, 1411 574.523 C 1405.225 576.561, 1399.150 578.824, 1397.500 579.552 C 1395.850 580.280, 1391.800 581.989, 1388.500 583.350 C 1374.339 589.192, 1344.964 603.509, 1337.119 608.393 C 1335.129 609.632, 1332.780 610.911, 1331.901 611.234 C 1329.487 612.121, 1303.786 628.347, 1293 635.793 C 1251.851 664.201, 1210.649 702.549, 1178.890 742 C 1166.203 757.759, 1152.848 777, 1154.595 777 C 1155.012 777, 1158.461 774.896, 1162.260 772.324 C 1169.807 767.214, 1171.888 764.945, 1184.248 748.344 C 1200.870 726.018, 1231.304 693.518, 1254.500 673.322 C 1294.223 638.737, 1334.065 613.508, 1384.500 591.002 C 1395.225 586.216, 1420.272 577.053, 1431 573.992 C 1435.125 572.814, 1439.625 571.439, 1441 570.936 C 1444.409 569.688, 1465.797 564.297, 1475 562.366 C 1489.758 559.269, 1506.998 556.559, 1528 554.033 C 1546.987 551.750, 1596.160 550.238, 1606.284 551.625 L 1610.847 552.251 1603.705 561.375 C 1599.777 566.394, 1596.301 570.725, 1595.982 571 C 1595.662 571.275, 1589.605 578.925, 1582.521 588 C 1575.437 597.075, 1569.363 604.725, 1569.022 605 C 1568.681 605.275, 1561.942 613.825, 1554.045 624 C 1546.148 634.175, 1538.520 643.884, 1537.093 645.576 C 1535.667 647.268, 1533.310 650.193, 1531.855 652.076 C 1530.400 653.959, 1525.094 660.675, 1520.064 667 C 1515.034 673.325, 1510.149 679.562, 1509.209 680.861 C 1508.269 682.159, 1507.023 683.734, 1506.440 684.361 C 1505.857 684.987, 1499.594 692.925, 1492.523 702 C 1485.452 711.075, 1479.386 718.725, 1479.044 719 C 1478.452 719.476, 1466.323 734.846, 1435.732 773.885 C 1428.160 783.549, 1421.181 792.365, 1420.224 793.478 C 1419.266 794.590, 1413.545 801.800, 1407.510 809.500 C 1401.475 817.200, 1392.929 828.018, 1388.519 833.541 C 1384.108 839.063, 1376 849.354, 1370.500 856.409 C 1365 863.464, 1360.037 869.746, 1359.472 870.368 C 1358.906 870.991, 1353.506 877.800, 1347.472 885.500 C 1335.304 901.025, 1333.961 902.715, 1332.468 904.362 C 1331.901 904.988, 1325.831 912.700, 1318.981 921.500 C 1312.130 930.300, 1305.751 938.400, 1304.805 939.500 C 1302.923 941.688, 1286.613 962.365, 1262.208 993.500 C 1246.097 1014.054, 1244.230 1016.407, 1242.482 1018.362 C 1241.922 1018.988, 1236.535 1025.800, 1230.510 1033.500 C 1224.485 1041.200, 1219.094 1048.047, 1218.528 1048.715 C 1216.370 1051.267, 1215.039 1052.955, 1202.537 1069 C 1195.467 1078.075, 1188.516 1086.898, 1187.091 1088.607 C 1183.886 1092.451, 1183.914 1092.415, 1170.543 1109.500 C 1164.517 1117.200, 1159.325 1123.725, 1159.006 1124 C 1158.687 1124.275, 1151.943 1132.825, 1144.019 1143 C 1136.095 1153.175, 1129.344 1161.725, 1129.017 1162 C 1128.473 1162.457, 1122.064 1170.574, 1087.908 1214.073 C 1081.533 1222.192, 1075.089 1230.335, 1073.589 1232.168 C 1069.856 1236.728, 1070.254 1236.226, 1053.981 1256.876 C 1046.017 1266.982, 1034.100 1282.098, 1027.500 1290.467 C 1020.900 1298.836, 1009.200 1313.686, 1001.500 1323.467 C 993.800 1333.247, 986.797 1342.065, 985.938 1343.061 C 985.078 1344.058, 983.503 1346.077, 982.438 1347.547 C 981.372 1349.018, 980.023 1350.734, 979.440 1351.361 C 978.857 1351.987, 972.594 1359.925, 965.523 1369 C 958.452 1378.075, 952.382 1385.725, 952.036 1386 C 951.689 1386.275, 945.816 1393.700, 938.984 1402.500 C 932.153 1411.300, 926.007 1419.074, 925.327 1419.776 C 924.647 1420.478, 920.413 1425.801, 915.918 1431.605 C 911.424 1437.410, 906.791 1442.573, 905.623 1443.080 C 904.455 1443.586, 899 1444.712, 893.500 1445.582 C 881.943 1447.410, 872.335 1449.037, 855.500 1452.018 C 842.975 1454.235, 831.044 1456.275, 817.500 1458.514 C 813.100 1459.241, 805.450 1460.519, 800.500 1461.354 C 795.550 1462.188, 785.650 1463.821, 778.500 1464.981 C 771.350 1466.141, 761.450 1467.762, 756.500 1468.583 C 751.550 1469.404, 743.450 1470.720, 738.500 1471.509 C 733.550 1472.297, 727.076 1473.405, 724.114 1473.971 C 714.128 1475.879, 714.174 1475.899, 705.970 1465.855 C 701.861 1460.825, 698.040 1456.212, 697.478 1455.605 C 696.916 1454.997, 695.566 1453.321, 694.478 1451.880 C 691.425 1447.835, 680.681 1434.561, 680.005 1434 C 679.674 1433.725, 673.592 1426.300, 666.489 1417.500 C 659.386 1408.700, 653.331 1401.275, 653.033 1401 C 652.735 1400.725, 649.817 1397.125, 646.548 1393 C 643.278 1388.875, 640.332 1385.275, 640 1385 C 639.668 1384.725, 636.722 1381.125, 633.452 1377 C 630.183 1372.875, 627.261 1369.275, 626.959 1369 C 626.246 1368.350, 598.397 1334.050, 590.082 1323.581 C 586.553 1319.136, 583.402 1315.275, 583.080 1315 C 582.759 1314.725, 579.798 1311.125, 576.500 1307 C 573.202 1302.875, 570.258 1299.275, 569.958 1299 C 569.424 1298.512, 539.958 1262.300, 521.500 1239.447 C 518.750 1236.043, 505.925 1220.302, 493 1204.468 C 480.075 1188.635, 467.498 1173.164, 465.051 1170.090 C 462.604 1167.015, 458.163 1161.575, 455.181 1158 C 448.469 1149.952, 449.183 1150.825, 433.544 1131.500 C 426.423 1122.700, 420.339 1115.275, 420.023 1115 C 419.708 1114.725, 415.881 1110, 411.518 1104.500 C 407.155 1099, 403.317 1094.275, 402.991 1094 C 402.664 1093.725, 399.722 1090.125, 396.452 1086 C 393.183 1081.875, 390.260 1078.275, 389.956 1078 C 389.652 1077.725, 383.592 1070.300, 376.489 1061.500 C 369.386 1052.700, 363.331 1045.275, 363.033 1045 C 362.735 1044.725, 359.817 1041.125, 356.548 1037 C 353.278 1032.875, 350.332 1029.275, 349.999 1029 C 349.667 1028.725, 345.850 1024, 341.518 1018.500 C 337.185 1013, 333.361 1008.275, 333.018 1008 C 332.676 1007.725, 329.722 1004.125, 326.452 1000 C 323.183 995.875, 320.257 992.275, 319.950 992 C 319.644 991.725, 316.899 988.350, 313.852 984.500 C 308.347 977.545, 305 974.122, 305 975.447 C 305 976.075, 310.238 984.069, 312.242 986.500 C 313.292 987.774, 339.997 1024.121, 342 1027.002 C 342.825 1028.189, 348.900 1036.508, 355.500 1045.490 C 362.100 1054.471, 368.175 1062.795, 369 1063.988 C 369.825 1065.180, 376.575 1074.428, 384 1084.539 C 391.425 1094.649, 404.250 1112.177, 412.500 1123.490 C 420.750 1134.803, 428.074 1144.833, 428.775 1145.780 C 431.639 1149.642, 445.895 1169.147, 451.500 1176.871 C 463.378 1193.238, 470.987 1203.664, 477.867 1213 C 489.883 1229.304, 500.437 1243.738, 502 1246.005 C 502.825 1247.201, 508.900 1255.529, 515.500 1264.510 C 522.100 1273.492, 528.175 1281.814, 529 1283.004 C 529.825 1284.195, 536.575 1293.448, 544 1303.566 C 551.425 1313.685, 563.800 1330.594, 571.500 1341.140 C 579.200 1351.687, 589.641 1365.982, 594.703 1372.908 C 599.765 1379.834, 605.873 1388.200, 608.276 1391.500 C 621.684 1409.909, 631.596 1423.476, 643.824 1440.154 C 651.346 1450.414, 658.175 1459.797, 659 1461.006 C 659.825 1462.215, 663.563 1467.320, 667.306 1472.351 L 674.113 1481.497 670.806 1482.207 C 667.630 1482.888, 650.435 1485.667, 631.500 1488.558 C 620.597 1490.224, 598.944 1493.567, 586 1495.585 C 580.775 1496.399, 572.225 1497.706, 567 1498.489 C 561.775 1499.272, 551.425 1500.840, 544 1501.973 C 536.575 1503.106, 526 1504.717, 520.500 1505.552 C 515 1506.387, 506.338 1507.735, 501.252 1508.547 C 496.165 1509.360, 487.840 1510.665, 482.752 1511.449 C 477.663 1512.233, 467.650 1513.822, 460.500 1514.982 C 453.350 1516.141, 444.575 1517.517, 441 1518.039 C 437.425 1518.561, 430.450 1519.692, 425.500 1520.554 C 420.550 1521.415, 412.675 1522.751, 408 1523.522 C 403.325 1524.293, 396.575 1525.415, 393 1526.015 C 389.425 1526.615, 382.675 1527.734, 378 1528.503 C 373.325 1529.271, 364.100 1530.849, 357.500 1532.009 C 350.900 1533.170, 341.787 1534.762, 337.248 1535.546 C 319.681 1538.583, 311.834 1539.992, 293 1543.487 C 274.221 1546.972, 261.827 1549.326, 255.500 1550.608 C 250.642 1551.592, 223.058 1557.099, 216 1558.493 C 212.425 1559.200, 205 1560.774, 199.500 1561.991 C 194 1563.209, 187.475 1564.603, 185 1565.090 C 180.260 1566.021, 175.172 1567.245, 158 1571.580 C 152.225 1573.039, 145.025 1574.831, 142 1575.564 C 133.940 1577.516, 126.411 1579.568, 118.500 1581.968 C 114.650 1583.136, 109.475 1584.704, 107 1585.451 C 104.525 1586.199, 99.800 1587.775, 96.500 1588.955 C 93.200 1590.135, 89.104 1591.531, 87.399 1592.056 C 81.830 1593.772, 64.853 1602.880, 60.359 1606.562 C 55.153 1610.828, 52.601 1615.274, 53.440 1618.617 C 54.794 1624.011, 68.133 1630.035, 86.500 1633.547 C 107.052 1637.478, 144.984 1641.383, 178 1642.969 C 189.825 1643.536, 205.800 1644.451, 213.500 1645 C 221.200 1645.550, 259 1646.495, 297.500 1647.099 C 393.402 1648.605, 541.094 1647.342, 655 1644.042 L 684.500 1643.187 694 1639.821 C 708.864 1634.555, 708.916 1634.245, 694.859 1634.685 C 663.845 1635.656, 598.040 1637.098, 539 1638.100 C 465.520 1639.347, 267.863 1638.669, 241 1637.078 C 231.375 1636.508, 212.607 1635.577, 199.294 1635.010 C 185.980 1634.443, 170.455 1633.543, 164.794 1633.010 C 159.132 1632.477, 149.100 1631.561, 142.500 1630.975 C 97.385 1626.968, 70.242 1620.315, 67.528 1612.600 C 66.630 1610.045, 66.860 1609.480, 69.806 1607.021 C 71.609 1605.516, 76.328 1603.010, 80.292 1601.454 C 84.256 1599.897, 87.950 1598.318, 88.500 1597.946 C 89.576 1597.218, 107.761 1591.511, 120 1588.060 C 124.125 1586.897, 128.850 1585.540, 130.500 1585.043 C 132.150 1584.547, 138.450 1582.981, 144.500 1581.563 C 150.550 1580.145, 157.075 1578.525, 159 1577.963 C 160.925 1577.402, 164.525 1576.548, 167 1576.067 C 169.475 1575.586, 175.775 1574.208, 181 1573.006 C 192.322 1570.401, 202.138 1568.278, 211 1566.518 C 214.575 1565.808, 223.125 1564.083, 230 1562.685 C 246.342 1559.362, 252.997 1558.049, 261.500 1556.472 C 265.350 1555.757, 273.675 1554.210, 280 1553.033 C 299.122 1549.474, 307.096 1548.026, 316 1546.496 C 320.675 1545.692, 329.675 1544.104, 336 1542.967 C 350.092 1540.434, 364.105 1538.079, 400.500 1532.128 C 410.950 1530.419, 421.975 1528.555, 425 1527.985 C 428.025 1527.415, 433.425 1526.522, 437 1526.001 C 440.575 1525.479, 449.350 1524.112, 456.500 1522.963 C 463.650 1521.813, 473.663 1520.226, 478.750 1519.436 C 483.837 1518.646, 492.163 1517.348, 497.250 1516.552 C 502.337 1515.756, 512.800 1514.149, 520.500 1512.982 C 528.200 1511.815, 538.775 1510.202, 544 1509.397 C 549.225 1508.593, 557.775 1507.294, 563 1506.511 C 568.225 1505.728, 578.575 1504.144, 586 1502.992 C 593.425 1501.839, 603.775 1500.234, 609 1499.425 C 627.325 1496.589, 636.616 1495.135, 650 1493.011 C 671.378 1489.619, 675.365 1489.042, 677.575 1489.020 C 678.963 1489.007, 680.951 1490.829, 683.575 1494.519 C 685.734 1497.555, 694.250 1509.215, 702.500 1520.430 C 710.750 1531.646, 718.175 1541.793, 719 1542.980 C 720.271 1544.808, 731.031 1559.556, 743.820 1577 C 745.634 1579.475, 750.547 1586.225, 754.737 1592 C 758.927 1597.775, 765.345 1606.550, 769 1611.500 C 772.655 1616.450, 779.086 1625.225, 783.293 1631 C 787.499 1636.775, 791.292 1641.950, 791.720 1642.500 C 792.149 1643.050, 793.625 1645.184, 795 1647.243 C 797.213 1650.557, 801 1652.405, 801 1650.172 C 801 1649.716, 804.849 1644.204, 809.553 1637.922 C 814.257 1631.640, 818.870 1625.442, 819.803 1624.149 C 820.736 1622.855, 826 1615.819, 831.500 1608.512 C 837 1601.205, 842.265 1594.163, 843.199 1592.863 C 844.134 1591.563, 854.709 1577.356, 866.699 1561.292 C 878.690 1545.228, 889.082 1531.278, 889.793 1530.292 C 890.505 1529.306, 901.755 1514.236, 914.793 1496.803 C 927.832 1479.369, 939.175 1464.140, 940 1462.960 C 940.825 1461.779, 942.175 1460.004, 943 1459.014 C 943.825 1458.025, 946.975 1453.809, 950 1449.646 C 953.025 1445.484, 956.175 1441.800, 957 1441.462 C 957.825 1441.123, 962.100 1440.223, 966.500 1439.462 C 970.900 1438.702, 978.100 1437.395, 982.500 1436.559 C 986.900 1435.723, 995.450 1434.116, 1001.500 1432.988 C 1011.818 1431.063, 1018.531 1429.771, 1035.500 1426.442 C 1039.350 1425.686, 1047.450 1424.117, 1053.500 1422.954 C 1059.550 1421.791, 1067.875 1420.159, 1072 1419.327 C 1076.125 1418.496, 1082.425 1417.226, 1086 1416.505 C 1089.575 1415.783, 1097.225 1414.206, 1103 1413 C 1108.775 1411.794, 1116.425 1410.218, 1120 1409.499 C 1126.986 1408.093, 1134.681 1406.459, 1150.500 1403.022 C 1156 1401.828, 1163.200 1400.270, 1166.500 1399.561 C 1172.398 1398.294, 1199.727 1392.099, 1211.500 1389.361 C 1214.800 1388.594, 1220.425 1387.303, 1224 1386.493 C 1237.842 1383.358, 1291.209 1369.660, 1305.500 1365.576 C 1310.450 1364.161, 1317.875 1362.064, 1322 1360.916 C 1326.125 1359.768, 1331.300 1358.233, 1333.500 1357.505 C 1335.700 1356.777, 1342.900 1354.525, 1349.500 1352.502 C 1356.100 1350.478, 1362.400 1348.444, 1363.500 1347.982 C 1364.600 1347.521, 1369.325 1345.892, 1374 1344.363 C 1378.675 1342.835, 1383.625 1341.005, 1385 1340.298 C 1386.375 1339.591, 1388.069 1339.010, 1388.764 1339.006 C 1389.459 1339.003, 1390.809 1338.561, 1391.764 1338.025 C 1392.719 1337.489, 1396.425 1335.894, 1400 1334.480 C 1409.575 1330.695, 1409.385 1330.780, 1424 1323.678 C 1441.384 1315.231, 1448.824 1310.310, 1457.686 1301.397 C 1465.835 1293.202, 1468 1288.180, 1468 1277.477 C 1468 1269.695, 1466.221 1263.772, 1461.599 1256.163 C 1443.655 1226.624, 1385.819 1195.955, 1270.500 1154.829 C 1262.800 1152.083, 1250.425 1147.813, 1243 1145.340 C 1235.575 1142.867, 1228.600 1140.460, 1227.500 1139.992 C 1226.400 1139.524, 1217.850 1136.690, 1208.500 1133.695 C 1197.062 1130.030, 1191.535 1127.799, 1191.606 1126.874 C 1191.664 1126.118, 1200.491 1113.780, 1211.222 1099.457 L 1230.732 1073.413 1256.116 1072.157 C 1312.071 1069.386, 1349.759 1067.346, 1414.500 1063.580 C 1428.800 1062.749, 1444.775 1061.601, 1450 1061.029 C 1455.225 1060.457, 1463.775 1059.542, 1469 1058.994 C 1486.270 1057.185, 1514.210 1053.137, 1528.500 1050.374 C 1544.383 1047.303, 1556.587 1044.862, 1561 1043.874 C 1577.974 1040.075, 1594.808 1035.915, 1612.500 1031.149 C 1622.430 1028.474, 1627.897 1026.883, 1642 1022.565 C 1644.475 1021.807, 1648.750 1020.509, 1651.500 1019.680 C 1657.525 1017.864, 1683.325 1008.897, 1691 1005.952 C 1694.025 1004.791, 1698.075 1003.380, 1700 1002.817 C 1701.925 1002.253, 1703.950 1001.481, 1704.500 1001.101 C 1705.050 1000.720, 1708.200 999.378, 1711.500 998.118 C 1735.826 988.827, 1778.524 969.065, 1802.500 955.998 C 1805.800 954.200, 1811.200 951.258, 1814.500 949.461 C 1825.199 943.635, 1839.105 935.163, 1853.832 925.500 C 1933.259 873.382, 1981.237 817.167, 1992.514 763.007 C 2000.322 725.514, 1987.998 689.105, 1956.982 658.036 C 1934.474 635.489, 1900.656 614.018, 1862.500 598.050 C 1857 595.748, 1851.150 593.268, 1849.500 592.539 C 1831.956 584.782, 1776.028 567.325, 1750 561.481 C 1746.425 560.679, 1739.450 559.095, 1734.500 557.961 C 1706.896 551.638, 1665.176 545.504, 1642.216 544.391 C 1634.360 544.010, 1627.723 543.361, 1627.467 542.947 C 1627.212 542.534, 1633.175 533.939, 1640.718 523.848 C 1648.262 513.757, 1655.459 504.021, 1656.711 502.214 C 1657.964 500.406, 1659.463 498.381, 1660.042 497.714 C 1661.339 496.218, 1707.919 433.953, 1710 430.933 C 1710.825 429.736, 1714.467 424.873, 1718.093 420.128 C 1727.251 408.142, 1732.156 401, 1731.229 401 C 1730.798 401, 1729.782 401.801, 1728.972 402.779 M 1615.467 557.479 C 1613.285 560.557, 1610.825 563.916, 1610 564.944 C 1609.175 565.972, 1607.825 567.776, 1607 568.951 C 1606.175 570.127, 1594.925 585.210, 1582 602.468 C 1569.075 619.726, 1557.915 634.668, 1557.199 635.673 C 1556.483 636.678, 1546.701 649.840, 1535.460 664.922 C 1524.219 680.004, 1514.230 693.428, 1513.261 694.753 C 1512.293 696.078, 1510.825 697.984, 1510 698.988 C 1509.175 699.992, 1507.915 701.643, 1507.200 702.657 C 1505.261 705.406, 1462.217 763.151, 1460.221 765.681 C 1459.274 766.881, 1457.919 768.681, 1457.208 769.681 C 1456.497 770.681, 1445.831 785, 1433.504 801.500 C 1421.178 818, 1410.509 832.311, 1409.796 833.303 C 1409.083 834.294, 1397.832 849.369, 1384.793 866.803 C 1371.755 884.236, 1360.505 899.311, 1359.793 900.303 C 1359.082 901.294, 1347.857 916.369, 1334.850 933.803 C 1321.842 951.236, 1300.017 980.500, 1286.350 998.834 C 1272.682 1017.168, 1256.012 1039.430, 1249.304 1048.304 C 1242.596 1057.179, 1237.230 1064.563, 1237.379 1064.713 C 1237.529 1064.863, 1246.168 1064.519, 1256.576 1063.949 C 1266.984 1063.379, 1288.325 1062.266, 1304 1061.475 C 1386.778 1057.299, 1440.890 1053.963, 1466 1051.489 C 1500.776 1048.063, 1525.430 1044.207, 1567.870 1035.556 C 1577.837 1033.525, 1610.506 1025.373, 1621 1022.300 C 1625.675 1020.931, 1631.750 1019.220, 1634.500 1018.498 C 1641.188 1016.744, 1659.073 1011.024, 1672 1006.506 C 1677.775 1004.488, 1684.075 1002.381, 1686 1001.825 C 1687.925 1001.269, 1689.927 1000.406, 1690.450 999.907 C 1690.972 999.408, 1692.097 998.985, 1692.950 998.966 C 1693.802 998.947, 1696.300 998.063, 1698.500 997 C 1700.700 995.937, 1703.005 995.053, 1703.623 995.034 C 1704.610 995.004, 1710.527 992.674, 1716.500 989.963 C 1717.600 989.464, 1720.975 988.116, 1724 986.969 C 1727.025 985.821, 1731.300 984.069, 1733.500 983.074 C 1735.700 982.079, 1739.075 980.594, 1741 979.774 C 1774.372 965.553, 1820.982 940.523, 1850.500 920.971 C 1924.869 871.712, 1970.598 816.441, 1979.578 764.961 C 1981.895 751.674, 1981.070 731.734, 1977.714 719.906 C 1960.104 657.851, 1884.499 608.094, 1756.500 574.323 C 1712.813 562.797, 1668.522 555.248, 1628.467 552.503 L 1619.434 551.884 1615.467 557.479 M 1254 1078.543 C 1254 1079.344, 1254.605 1080, 1255.345 1080 C 1256.085 1080, 1257.450 1080.840, 1258.379 1081.866 C 1259.956 1083.609, 1259.959 1084.053, 1258.413 1088.616 C 1254.040 1101.526, 1244.867 1125.455, 1243.796 1126.746 C 1242.985 1127.723, 1241.497 1128.018, 1239.230 1127.650 C 1232.727 1126.595, 1236.522 1129.313, 1246.924 1133.161 C 1257.319 1137.006, 1261.779 1137.368, 1256.083 1133.904 C 1254.347 1132.848, 1253 1131.184, 1253 1130.094 C 1253 1127.201, 1266.915 1089.776, 1268.749 1087.736 C 1269.932 1086.421, 1271.183 1086.131, 1273.668 1086.597 C 1277.116 1087.244, 1278.467 1085.652, 1275.250 1084.734 C 1274.287 1084.459, 1269.112 1082.626, 1263.750 1080.660 C 1256.181 1077.886, 1254 1077.412, 1254 1078.543 M 1280 1088.543 C 1280 1089.344, 1280.605 1090, 1281.345 1090 C 1282.085 1090, 1283.450 1090.840, 1284.379 1091.866 C 1285.956 1093.609, 1285.959 1094.053, 1284.413 1098.616 C 1280.040 1111.526, 1270.867 1135.455, 1269.796 1136.746 C 1268.985 1137.723, 1267.497 1138.018, 1265.230 1137.650 C 1258.727 1136.595, 1262.522 1139.313, 1272.924 1143.161 C 1283.319 1147.006, 1287.779 1147.368, 1282.083 1143.904 C 1280.347 1142.848, 1279 1141.184, 1279 1140.094 C 1279 1137.201, 1292.915 1099.776, 1294.749 1097.736 C 1295.932 1096.421, 1297.183 1096.131, 1299.668 1096.597 C 1303.116 1097.244, 1304.467 1095.652, 1301.250 1094.734 C 1300.287 1094.459, 1295.112 1092.626, 1289.750 1090.660 C 1282.181 1087.886, 1280 1087.412, 1280 1088.543 M 1164.471 1162.043 C 1154.587 1175.266, 1144.996 1188.204, 1143.158 1190.793 C 1141.320 1193.382, 1138.935 1196.625, 1137.858 1198 C 1136.782 1199.375, 1125.816 1214, 1113.491 1230.500 C 1101.165 1247, 1090.500 1261.254, 1089.791 1262.175 C 1089.081 1263.096, 1087.918 1264.671, 1087.207 1265.675 C 1086.496 1266.679, 1077.325 1278.975, 1066.826 1293 C 1056.327 1307.025, 1046.140 1320.750, 1044.188 1323.500 C 1042.235 1326.250, 1040.157 1329.007, 1039.569 1329.627 C 1038.981 1330.248, 1037.825 1331.773, 1037 1333.017 C 1036.175 1334.260, 1034.552 1336.453, 1033.394 1337.889 C 1032.235 1339.325, 1022.127 1352.875, 1010.932 1368 C 999.737 1383.125, 990.110 1396.007, 989.539 1396.627 C 988.967 1397.248, 987.825 1398.730, 987 1399.921 C 986.175 1401.113, 980.410 1408.866, 974.190 1417.151 C 967.969 1425.435, 963.019 1432.348, 963.190 1432.513 C 963.496 1432.809, 973.840 1431.096, 987.500 1428.487 C 991.350 1427.752, 998.493 1426.454, 1003.374 1425.603 C 1008.254 1424.753, 1013.036 1423.806, 1014 1423.500 C 1014.964 1423.194, 1019.521 1422.285, 1024.126 1421.480 C 1033.013 1419.926, 1035.412 1419.464, 1073.500 1411.960 C 1096.169 1407.494, 1102.090 1406.283, 1129.500 1400.505 C 1138.850 1398.535, 1149.425 1396.308, 1153 1395.558 C 1158.827 1394.334, 1166.957 1392.552, 1185.500 1388.434 C 1188.800 1387.702, 1193.750 1386.616, 1196.500 1386.023 C 1199.250 1385.429, 1204.200 1384.292, 1207.500 1383.494 C 1210.800 1382.697, 1217.550 1381.132, 1222.500 1380.016 C 1227.450 1378.899, 1233.075 1377.548, 1235 1377.012 C 1236.925 1376.476, 1249.750 1373.254, 1263.500 1369.851 C 1277.250 1366.448, 1291.650 1362.814, 1295.500 1361.775 C 1299.350 1360.736, 1304.750 1359.283, 1307.500 1358.546 C 1310.250 1357.809, 1318.125 1355.546, 1325 1353.517 C 1331.875 1351.488, 1339.525 1349.236, 1342 1348.512 C 1352.286 1345.505, 1366.636 1340.927, 1368.500 1340.057 C 1369.600 1339.544, 1374.015 1337.949, 1378.312 1336.512 C 1382.609 1335.076, 1387.109 1333.507, 1388.312 1333.027 C 1389.515 1332.546, 1394.775 1330.478, 1400 1328.430 C 1423.994 1319.027, 1440.112 1309.941, 1447.886 1301.434 C 1451.890 1297.053, 1453.089 1294.888, 1454.036 1290.326 C 1459.445 1264.270, 1433.963 1238.149, 1375.809 1210.139 C 1341.428 1193.580, 1284.203 1171.045, 1235.500 1154.885 C 1230.550 1153.243, 1225.810 1151.529, 1224.967 1151.077 C 1224.124 1150.624, 1221.889 1149.915, 1220 1149.500 C 1218.111 1149.085, 1215.876 1148.382, 1215.033 1147.938 C 1213.029 1146.882, 1184.809 1137.994, 1183.471 1137.997 C 1182.906 1137.999, 1174.356 1148.819, 1164.471 1162.043 M 888 1453.540 C 883.875 1454.274, 876.450 1455.595, 871.500 1456.475 C 866.550 1457.356, 858.675 1458.717, 854 1459.501 C 849.325 1460.284, 840.100 1461.859, 833.500 1463 C 826.900 1464.141, 817.675 1465.716, 813 1466.500 C 808.325 1467.284, 800.450 1468.606, 795.500 1469.438 C 790.550 1470.270, 780.875 1471.882, 774 1473.020 C 767.125 1474.158, 757.450 1475.766, 752.500 1476.593 C 747.550 1477.421, 739.450 1478.720, 734.500 1479.481 C 729.550 1480.242, 724.084 1481.167, 722.353 1481.537 L 719.207 1482.209 733.214 1499.354 C 740.919 1508.784, 750.636 1520.775, 754.809 1526 C 758.981 1531.225, 762.680 1535.725, 763.030 1536 C 763.379 1536.275, 766.553 1540.142, 770.082 1544.593 C 785.379 1563.882, 798.220 1579.091, 798.971 1578.807 C 799.418 1578.638, 804.252 1572.875, 809.716 1566 C 832.743 1537.021, 850.912 1514.048, 855.983 1507.500 C 858.964 1503.650, 862.911 1498.700, 864.752 1496.500 C 866.594 1494.300, 868.425 1492.050, 868.822 1491.500 C 869.447 1490.635, 888.789 1465.921, 893 1460.607 C 893.825 1459.566, 895.784 1457.204, 897.354 1455.357 L 900.207 1452 897.854 1452.103 C 896.559 1452.159, 892.125 1452.806, 888 1453.540" 
            fill="none" 
            stroke="#d53b3b" 
            stroke-width="8"
            stroke-linecap="round"
            stroke-linejoin="round">
             <animate attributeName="stroke-dasharray" 
             values="-100,5000;10000,0;100,10000" 
             dur="2s" 
             repeatCount="indefinite" />
      </path>
    </svg>